<svg width="455" height="455" viewBox="0 0 455 455" fill="none" xmlns="http://www.w3.org/2000/svg">
<path fill-rule="evenodd" clip-rule="evenodd" d="M212.618 416.958C190.142 440.405 158.524 455 123.5 455C55.2928 455 0 399.646 0 331.364C0 263.082 55.2928 207.728 123.5 207.728C167.166 207.728 205.54 230.415 227.5 264.658C249.46 230.415 287.834 207.728 331.5 207.728C399.707 207.728 455 263.082 455 331.364C455 399.646 399.707 455 331.5 455C296.476 455 264.858 440.405 242.382 416.958H212.618Z" fill="#0F0E0E"/>
<path fill-rule="evenodd" clip-rule="evenodd" d="M122 189.208H333V189.217C400.516 190.021 455 245.063 455 312.844C455 381.126 399.707 436.48 331.5 436.48C296.476 436.48 264.858 421.884 242.382 398.438H212.618C190.142 421.885 158.524 436.48 123.5 436.48C55.2928 436.48 0 381.126 0 312.844C0 245.063 54.484 190.022 122 189.217V189.208Z" fill="#191919"/>
<rect x="104.5" y="256.278" width="37.5" height="113.131" rx="18" stroke="#919191" stroke-width="6"/>
<rect x="180" y="293.82" width="37.5479" height="113" rx="18" transform="rotate(90 180 293.82)" stroke="#919191" stroke-width="6"/>
<rect x="107.5" y="290.82" width="31.5" height="43.5479" fill="#191919"/>
<rect x="145" y="296.826" width="31.5347" height="43.5" transform="rotate(90 145 296.826)" fill="#191919"/>
<g filter="url(#filter0_d_76_19)">
<path d="M356 360.396C356 373.945 345.029 384.925 331.5 384.925C317.971 384.925 307 373.945 307 360.396C307 346.847 317.971 335.867 331.5 335.867C345.029 335.867 356 346.847 356 360.396Z" stroke="#5184C7" stroke-width="4" shape-rendering="crispEdges"/>
</g>
<path d="M331.5 360.396V366.904V372.66M331.5 360.396L326.25 357.518L322 355.391M331.5 360.396L336.75 357.518L341.25 355.391M326.25 369.793L321.433 366.474C321.162 366.287 321 365.979 321 365.65V360.408V355.483C321 355.117 321.199 354.781 321.519 354.606L326.25 352.012L331.052 349.608C331.334 349.467 331.666 349.467 331.948 349.608L336.75 352.012L341.481 354.606C341.801 354.781 342 355.117 342 355.483V360.408V365.65C342 365.979 341.838 366.287 341.567 366.474L336.75 369.793L332.011 372.607C331.696 372.794 331.304 372.794 330.989 372.607L326.25 369.793Z" stroke="#4E88D3" stroke-width="2" stroke-linecap="round"/>
<path d="M376.5 309.841L379.5 312.844" stroke="#C83936" stroke-width="2" stroke-linecap="round"/>
<path d="M380 308.84C380 311.053 378.208 312.845 376 312.845C373.792 312.845 372 311.053 372 308.84C372 306.626 373.792 304.834 376 304.834C378.208 304.834 380 306.626 380 308.84Z" stroke="#C83936" stroke-width="2"/>
<path d="M385 315.347H387.25M382 319.351H387.25" stroke="#C83936" stroke-width="2" stroke-linecap="round"/>
<g filter="url(#filter1_d_76_19)">
<path d="M403.5 312.844C403.5 326.393 392.529 337.373 379 337.373C365.471 337.373 354.5 326.393 354.5 312.844C354.5 299.295 365.471 288.315 379 288.315C392.529 288.315 403.5 299.295 403.5 312.844Z" stroke="#982B29" stroke-width="4" shape-rendering="crispEdges"/>
</g>
<path d="M367.5 308.829C367.5 304.135 371.306 300.329 376 300.329C380.693 300.329 384.5 304.144 384.5 308.84C384.5 313.535 380.693 317.35 376 317.35H367.5V308.829Z" stroke="#C73A38" stroke-width="2"/>
<mask id="path-14-inside-1_76_19" fill="white">
<path fill-rule="evenodd" clip-rule="evenodd" d="M374 316.848C374 322.095 378.253 326.359 383.5 326.359H393V316.838C393 311.591 388.747 307.338 383.5 307.338C383.495 307.338 383.491 307.338 383.486 307.338C383.495 307.5 383.5 307.664 383.5 307.829V308.089C383.5 312.927 379.578 316.848 374.74 316.848H374Z"/>
</mask>
<path d="M374 316.848V314.848H372L372 316.848L374 316.848ZM393 326.359V328.359H395V326.359H393ZM383.486 307.338L383.483 305.338L381.369 305.341L381.489 307.452L383.486 307.338ZM372 316.848C372 323.197 377.146 328.359 383.5 328.359V324.359C379.361 324.359 376 320.993 376 316.848L372 316.848ZM383.5 328.359H393V324.359H383.5V328.359ZM395 326.359V316.838H391V326.359H395ZM395 316.838C395 310.487 389.851 305.338 383.5 305.338V309.338C387.642 309.338 391 312.696 391 316.838H395ZM383.5 305.338C383.494 305.338 383.488 305.338 383.483 305.338L383.489 309.338C383.493 309.338 383.497 309.338 383.5 309.338V305.338ZM381.489 307.452C381.496 307.576 381.5 307.702 381.5 307.829H385.5C385.5 307.626 385.494 307.425 385.483 307.224L381.489 307.452ZM381.5 307.829V308.089H385.5V307.829H381.5ZM381.5 308.089C381.5 311.822 378.474 314.848 374.74 314.848V318.848C380.683 318.848 385.5 314.031 385.5 308.089H381.5ZM374.74 314.848H374V318.848H374.74V314.848Z" fill="#C73A38" mask="url(#path-14-inside-1_76_19)"/>
<g filter="url(#filter2_d_76_19)">
<path d="M356 265.292C356 278.841 345.029 289.821 331.5 289.821C317.971 289.821 307 278.841 307 265.292C307 251.742 317.971 240.762 331.5 240.762C345.029 240.762 356 251.742 356 265.292Z" stroke="#B18430" stroke-width="4" shape-rendering="crispEdges"/>
</g>
<path d="M335 253.529H323C322.448 253.529 322 253.977 322 254.529V273.888C322 274.153 322.105 274.407 322.293 274.594L323.207 275.51C323.395 275.698 323.649 275.803 323.915 275.803H338.666C338.883 275.803 339.094 275.733 339.267 275.603L340.6 274.602C340.852 274.413 341 274.117 341 273.802V259.786M335 253.529H335.571C335.845 253.529 336.107 253.641 336.296 253.84L340.725 258.495C340.901 258.681 341 258.928 341 259.184V259.786M335 253.529V258.371C335 258.636 335.105 258.89 335.293 259.077L335.707 259.492C335.895 259.68 336.149 259.786 336.415 259.786H341M326.5 263.79H333M326.5 267.294H331.5M326.5 270.798H329.5" stroke="#E2AE41" stroke-width="2" stroke-linecap="round"/>
<g filter="url(#filter3_d_76_19)">
<path d="M308.5 312.844C308.5 326.393 297.529 337.373 284 337.373C270.471 337.373 259.5 326.393 259.5 312.844C259.5 299.295 270.471 288.315 284 288.315C297.529 288.315 308.5 299.295 308.5 312.844Z" stroke="#88B652" stroke-width="4" shape-rendering="crispEdges"/>
</g>
<path d="M288.5 303.333L281 323.355" stroke="#89C051" stroke-width="2" stroke-linecap="round"/>
<path d="M278 308.339L273 312.343L272.237 312.954C271.987 313.154 271.987 313.535 272.237 313.735L273 314.346L278.25 318.1" stroke="#89C051" stroke-width="2" stroke-linecap="round"/>
<path d="M291.75 318.1L296.75 314.095L297.513 313.484C297.763 313.284 297.763 312.904 297.513 312.704L296.75 312.093L291.5 308.339" stroke="#89C051" stroke-width="2" stroke-linecap="round"/>
<path d="M349.25 132.145C357.405 132.145 365.227 129.166 370.994 123.862C376.76 118.558 380 111.365 380 103.864C380 96.3635 376.76 89.1701 370.994 83.8663C365.227 78.5626 357.405 75.583 349.25 75.583L349.25 93.9657C352.104 93.9657 354.842 95.0086 356.86 96.8649C358.879 98.7212 360.013 101.239 360.013 103.864C360.013 106.489 358.879 109.007 356.86 110.863C354.842 112.72 352.104 113.762 349.25 113.762L349.25 132.145Z" fill="#D9D9D9"/>
<path d="M206.25 56.5622C210.288 56.5622 214.287 55.8306 218.018 54.4094C221.748 52.9881 225.138 50.905 227.994 48.2788C230.849 45.6527 233.114 42.535 234.659 39.1038C236.205 35.6726 237 31.995 237 28.2811H216.862C216.862 29.5628 216.588 30.832 216.054 32.0161C215.521 33.2003 214.739 34.2762 213.754 35.1825C212.768 36.0888 211.599 36.8077 210.311 37.2982C209.024 37.7887 207.644 38.0412 206.25 38.0412L206.25 56.5622Z" fill="#D9D9D9"/>
<path d="M247.75 113.625C243.712 113.625 239.713 114.356 235.982 115.778C232.252 117.199 228.862 119.282 226.006 121.908C223.151 124.534 220.886 127.652 219.341 131.083C217.795 134.514 217 138.192 217 141.906H236.997C236.997 140.607 237.275 139.321 237.815 138.121C238.356 136.921 239.148 135.831 240.146 134.913C241.145 133.994 242.33 133.266 243.635 132.769C244.94 132.272 246.338 132.016 247.75 132.016L247.75 113.625Z" fill="#D9D9D9"/>
<path d="M104 38.0417C100.323 38.0417 96.682 38.7668 93.2849 40.1755C89.8877 41.5841 86.8011 43.6489 84.201 46.2518C81.601 48.8547 79.5385 51.9448 78.1314 55.3456C76.7242 58.7465 76 62.3915 76 66.0726C76 69.7536 76.7242 73.3986 78.1314 76.7995C79.5385 80.2003 81.601 83.2904 84.201 85.8933C86.8011 88.4962 89.8877 90.561 93.2849 91.9696C96.682 93.3783 100.323 94.1034 104 94.1034L104 75.589C102.752 75.589 101.516 75.3429 100.362 74.8646C99.2089 74.3864 98.161 73.6854 97.2782 72.8017C96.3955 71.918 95.6953 70.8689 95.2176 69.7143C94.7399 68.5598 94.494 67.3223 94.494 66.0726C94.494 64.8228 94.7399 63.5854 95.2176 62.4308C95.6953 61.2762 96.3955 60.2271 97.2782 59.3434C98.161 58.4597 99.2089 57.7587 100.362 57.2805C101.516 56.8022 102.752 56.5561 104 56.5561V38.0417Z" fill="#D9D9D9"/>
<rect x="104" y="38.0417" width="102.5" height="18.5204" fill="#D9D9D9"/>
<path d="M227 0C232.523 0 237 4.47715 237 10V28.5314H217V9.99999C217 4.47715 221.477 0 227 0Z" fill="#D9D9D9"/>
<rect x="104" y="75.583" width="248.5" height="18.5204" fill="#D9D9D9"/>
<rect x="247.5" y="113.625" width="105" height="18.5204" fill="#D9D9D9"/>
<rect x="217" y="141.155" width="20" height="10.5116" fill="#D9D9D9"/>
<path d="M203.5 161.667C203.5 156.144 207.977 151.667 213.5 151.667H241.5C247.023 151.667 251.5 156.144 251.5 161.667V189.208H203.5V161.667Z" fill="#8C95A0"/>
<defs>
<filter id="filter0_d_76_19" x="300.5" y="329.367" width="62" height="62.0583" filterUnits="userSpaceOnUse" color-interpolation-filters="sRGB">
<feFlood flood-opacity="0" result="BackgroundImageFix"/>
<feColorMatrix in="SourceAlpha" type="matrix" values="0 0 0 0 0 0 0 0 0 0 0 0 0 0 0 0 0 0 127 0" result="hardAlpha"/>
<feMorphology radius="2.5" operator="dilate" in="SourceAlpha" result="effect1_dropShadow_76_19"/>
<feOffset/>
<feGaussianBlur stdDeviation="1"/>
<feComposite in2="hardAlpha" operator="out"/>
<feColorMatrix type="matrix" values="0 0 0 0 0.290196 0 0 0 0 0.513726 0 0 0 0 0.796078 0 0 0 1 0"/>
<feBlend mode="normal" in2="BackgroundImageFix" result="effect1_dropShadow_76_19"/>
<feBlend mode="normal" in="SourceGraphic" in2="effect1_dropShadow_76_19" result="shape"/>
</filter>
<filter id="filter1_d_76_19" x="348" y="281.815" width="62" height="62.0583" filterUnits="userSpaceOnUse" color-interpolation-filters="sRGB">
<feFlood flood-opacity="0" result="BackgroundImageFix"/>
<feColorMatrix in="SourceAlpha" type="matrix" values="0 0 0 0 0 0 0 0 0 0 0 0 0 0 0 0 0 0 127 0" result="hardAlpha"/>
<feMorphology radius="2.5" operator="dilate" in="SourceAlpha" result="effect1_dropShadow_76_19"/>
<feOffset/>
<feGaussianBlur stdDeviation="1"/>
<feComposite in2="hardAlpha" operator="out"/>
<feColorMatrix type="matrix" values="0 0 0 0 0.596078 0 0 0 0 0.168627 0 0 0 0 0.160784 0 0 0 1 0"/>
<feBlend mode="normal" in2="BackgroundImageFix" result="effect1_dropShadow_76_19"/>
<feBlend mode="normal" in="SourceGraphic" in2="effect1_dropShadow_76_19" result="shape"/>
</filter>
<filter id="filter2_d_76_19" x="300.5" y="234.262" width="62" height="62.0583" filterUnits="userSpaceOnUse" color-interpolation-filters="sRGB">
<feFlood flood-opacity="0" result="BackgroundImageFix"/>
<feColorMatrix in="SourceAlpha" type="matrix" values="0 0 0 0 0 0 0 0 0 0 0 0 0 0 0 0 0 0 127 0" result="hardAlpha"/>
<feMorphology radius="2.5" operator="dilate" in="SourceAlpha" result="effect1_dropShadow_76_19"/>
<feOffset/>
<feGaussianBlur stdDeviation="1"/>
<feComposite in2="hardAlpha" operator="out"/>
<feColorMatrix type="matrix" values="0 0 0 0 0.694118 0 0 0 0 0.517647 0 0 0 0 0.188235 0 0 0 1 0"/>
<feBlend mode="normal" in2="BackgroundImageFix" result="effect1_dropShadow_76_19"/>
<feBlend mode="normal" in="SourceGraphic" in2="effect1_dropShadow_76_19" result="shape"/>
</filter>
<filter id="filter3_d_76_19" x="253" y="281.815" width="62" height="62.0583" filterUnits="userSpaceOnUse" color-interpolation-filters="sRGB">
<feFlood flood-opacity="0" result="BackgroundImageFix"/>
<feColorMatrix in="SourceAlpha" type="matrix" values="0 0 0 0 0 0 0 0 0 0 0 0 0 0 0 0 0 0 127 0" result="hardAlpha"/>
<feMorphology radius="2.5" operator="dilate" in="SourceAlpha" result="effect1_dropShadow_76_19"/>
<feOffset/>
<feGaussianBlur stdDeviation="1"/>
<feComposite in2="hardAlpha" operator="out"/>
<feColorMatrix type="matrix" values="0 0 0 0 0.533333 0 0 0 0 0.713726 0 0 0 0 0.321569 0 0 0 1 0"/>
<feBlend mode="normal" in2="BackgroundImageFix" result="effect1_dropShadow_76_19"/>
<feBlend mode="normal" in="SourceGraphic" in2="effect1_dropShadow_76_19" result="shape"/>
</filter>
</defs>
</svg>
