<svg width="164" height="171" viewBox="0 0 164 171" fill="none" xmlns="http://www.w3.org/2000/svg">
<g filter="url(#filter0_f_125_612)">
<path d="M151.032 103.954L140.524 102.359C139.866 102.307 139.299 101.875 139.047 101.238L135.64 92.6602C135.385 92.0261 135.491 91.2997 135.922 90.7789L142.209 81.9666C143.208 80.7454 143.142 78.9248 142.052 77.7882L137.078 72.5993C135.991 71.4627 134.243 71.389 133.076 72.4362L124.628 78.9932C124.131 79.4409 123.43 79.5565 122.825 79.2935L114.602 75.7361C113.994 75.4757 113.578 74.8732 113.525 74.1943L112.002 63.2323C111.881 61.6274 110.6 60.3907 109.062 60.3907H102.027C100.486 60.3907 99.205 61.6274 99.0866 63.2323L97.5584 74.1943C97.5103 74.8785 97.0943 75.4757 96.4866 75.7361L88.2611 79.2935C87.6532 79.5565 86.9573 79.4409 86.4557 78.9932L78.0128 72.4362C76.8456 71.3916 75.1006 71.4624 74.0088 72.5993L69.0361 77.7882C67.9468 78.9248 67.8813 80.7457 68.8795 81.9666L75.1636 90.7813C75.5898 91.2997 75.7034 92.0285 75.4488 92.6602L72.0419 101.238C71.7949 101.875 71.22 102.307 70.5669 102.362L60.0543 103.954C58.521 104.08 57.3359 105.417 57.3359 107.025V114.363C57.3359 115.968 58.5213 117.31 60.0543 117.431L70.5669 119.023C71.22 119.079 71.7949 119.513 72.0419 120.147L75.4488 128.725C75.7034 129.362 75.5901 130.091 75.1636 130.609L68.8795 139.424C67.881 140.645 67.9466 142.46 69.0361 143.602L74.0088 148.791C75.1006 149.928 76.8456 149.996 78.0128 148.952L86.4557 142.392C86.9573 141.95 87.6532 141.831 88.2611 142.097L96.4866 145.649C97.0946 145.915 97.5103 146.51 97.5612 147.197L99.0868 158.159C99.2078 159.761 100.486 161 102.027 161H109.062C110.603 161 111.881 159.761 112.002 158.159L113.525 147.197C113.579 146.51 113.994 145.915 114.602 145.649L122.828 142.097C123.433 141.831 124.134 141.95 124.631 142.392L133.076 148.952C134.243 149.996 135.991 149.928 137.078 148.791L142.053 143.602C143.145 142.46 143.208 140.645 142.209 139.424L135.923 130.609C135.499 130.091 135.386 129.362 135.64 128.725L139.047 120.147C139.299 119.513 139.866 119.079 140.525 119.023L151.032 117.431C152.568 117.31 153.753 115.968 153.753 114.363V107.025C153.753 105.417 152.568 104.08 151.032 103.954ZM117.103 122.757C114.014 125.975 109.911 127.749 105.544 127.749C101.179 127.749 97.0711 125.975 93.9847 122.757C90.8984 119.531 89.1961 115.25 89.1961 110.693C89.1961 106.138 90.8981 101.854 93.9847 98.6333C97.0711 95.4071 101.179 93.6391 105.544 93.6391C109.912 93.6391 114.014 95.4071 117.103 98.6333C120.189 101.854 121.889 106.138 121.889 110.693C121.889 115.25 120.19 119.531 117.103 122.757Z" fill="#4E6851"/>
<path d="M62.9104 84.3664C64.0499 83.9403 64.6779 82.6718 64.358 81.4561L62.691 72.9465C62.5576 72.4253 62.7114 71.8703 63.0921 71.5072L68.2538 66.6053C68.632 66.2449 69.182 66.137 69.6585 66.3263L77.5612 68.8232C78.6887 69.2679 79.9594 68.7365 80.474 67.5945L82.8191 62.3874C83.3382 61.2428 82.9225 59.885 81.8734 59.2639L74.9943 54.5038C74.5478 54.2354 74.2779 53.7276 74.3059 53.1908L74.6337 45.918C74.6614 45.3786 74.9689 44.9023 75.4358 44.6811L82.7866 40.5894C83.8883 40.0762 84.4204 38.7556 84.012 37.5768L82.1458 32.1588C81.7349 30.972 80.5193 30.3143 79.3545 30.6485L71.1969 32.3823C70.6975 32.5298 70.1704 32.3667 69.8202 31.9665L65.1245 26.5836C64.774 26.1833 64.6683 25.6206 64.8546 25.1154L67.2479 16.8741C67.6739 15.6927 67.1648 14.3691 66.0679 13.8347L61.08 11.3851C59.9857 10.848 58.6793 11.2771 58.0818 12.3742L53.5227 19.5526C53.2677 20.0186 52.7813 20.2997 52.2667 20.2737L45.2969 19.9289C44.7825 19.9053 44.3184 19.5736 44.1093 19.0893L40.1931 11.4219C39.6963 10.2723 38.4354 9.71668 37.3006 10.1431L32.1112 12.0929C30.9739 12.5193 30.3436 13.7851 30.6664 15.0005L32.3305 23.5155C32.4668 24.031 32.313 24.589 31.9298 24.9494L26.7677 29.8539C26.3845 30.2143 25.8424 30.3249 25.3583 30.1356L17.4603 27.6358C16.3332 27.1887 15.0647 27.7255 14.5478 28.8671L12.2025 34.0722C11.6881 35.2142 12.0991 36.5773 13.1482 37.1981L20.0272 41.9581C20.476 42.2242 20.7434 42.7294 20.7157 43.2661L20.3879 50.5389C20.3678 51.0809 20.0524 51.5546 19.586 51.7755L12.2353 55.8669C11.133 56.3828 10.6011 57.7011 11.0098 58.8799L12.8783 64.2976C13.2867 65.4843 14.5023 66.142 15.6648 65.8108L23.8275 64.069C24.3218 63.9269 24.8563 64.09 25.2017 64.4899L29.8968 69.8737C30.2472 70.2736 30.3484 70.8419 30.1664 71.3444L27.7736 79.5857C27.35 80.7645 27.8596 82.0882 28.9536 82.6249L33.9416 85.0719C35.0385 85.6113 36.342 85.1772 36.9397 84.0851L41.4963 76.9043C41.7535 76.4413 42.2377 76.157 42.7546 76.1882L49.7247 76.5303C50.2416 76.5569 50.7006 76.8778 50.9148 77.3697L54.8284 85.0344C55.3279 86.1846 56.5861 86.745 57.7206 86.3185L62.9104 84.3664ZM51.8532 60.814C48.6328 62.0217 45.1508 61.8533 42.0514 60.3324C38.9524 58.8114 36.6122 56.1223 35.4497 52.7594C34.2923 49.3967 34.4537 45.7656 35.9115 42.5344C37.3688 39.2979 39.9484 36.856 43.1687 35.6459C46.3913 34.4353 49.8711 34.6037 52.9676 36.1299C56.0641 37.6455 58.4094 40.3349 59.5716 43.6976C60.7293 47.0606 60.5653 50.689 59.1103 53.9231C57.6477 57.154 55.0729 59.601 51.8532 60.814Z" fill="#4E6851"/>
</g>
<path d="M151.032 103.954L140.524 102.359C139.866 102.307 139.299 101.875 139.047 101.238L135.64 92.6602C135.385 92.0261 135.491 91.2997 135.922 90.7789L142.209 81.9666C143.208 80.7454 143.142 78.9248 142.052 77.7882L137.078 72.5993C135.991 71.4627 134.243 71.389 133.076 72.4362L124.628 78.9932C124.131 79.4409 123.43 79.5565 122.825 79.2935L114.602 75.7361C113.994 75.4757 113.578 74.8732 113.525 74.1943L112.002 63.2323C111.881 61.6274 110.6 60.3907 109.062 60.3907H102.027C100.486 60.3907 99.205 61.6274 99.0866 63.2323L97.5584 74.1943C97.5103 74.8785 97.0943 75.4757 96.4866 75.7361L88.2611 79.2935C87.6532 79.5565 86.9573 79.4409 86.4557 78.9932L78.0128 72.4362C76.8456 71.3916 75.1006 71.4624 74.0088 72.5993L69.0361 77.7882C67.9468 78.9248 67.8813 80.7457 68.8795 81.9666L75.1636 90.7813C75.5898 91.2997 75.7034 92.0285 75.4488 92.6602L72.0419 101.238C71.7949 101.875 71.22 102.307 70.5669 102.362L60.0543 103.954C58.521 104.08 57.3359 105.417 57.3359 107.025V114.363C57.3359 115.968 58.5213 117.31 60.0543 117.431L70.5669 119.023C71.22 119.079 71.7949 119.513 72.0419 120.147L75.4488 128.725C75.7034 129.362 75.5901 130.091 75.1636 130.609L68.8795 139.424C67.881 140.645 67.9466 142.46 69.0361 143.602L74.0088 148.791C75.1006 149.928 76.8456 149.996 78.0128 148.952L86.4557 142.392C86.9573 141.95 87.6532 141.831 88.2611 142.097L96.4866 145.649C97.0946 145.915 97.5103 146.51 97.5612 147.197L99.0868 158.159C99.2078 159.761 100.486 161 102.027 161H109.062C110.603 161 111.881 159.761 112.002 158.159L113.525 147.197C113.579 146.51 113.994 145.915 114.602 145.649L122.828 142.097C123.433 141.831 124.134 141.95 124.631 142.392L133.076 148.952C134.243 149.996 135.991 149.928 137.078 148.791L142.053 143.602C143.145 142.46 143.208 140.645 142.209 139.424L135.923 130.609C135.499 130.091 135.386 129.362 135.64 128.725L139.047 120.147C139.299 119.513 139.866 119.079 140.525 119.023L151.032 117.431C152.568 117.31 153.753 115.968 153.753 114.363V107.025C153.753 105.417 152.568 104.08 151.032 103.954ZM117.103 122.757C114.014 125.975 109.911 127.749 105.544 127.749C101.179 127.749 97.0711 125.975 93.9847 122.757C90.8984 119.531 89.1961 115.25 89.1961 110.693C89.1961 106.138 90.8981 101.854 93.9847 98.6333C97.0711 95.4071 101.179 93.6391 105.544 93.6391C109.912 93.6391 114.014 95.4071 117.103 98.6333C120.189 101.854 121.889 106.138 121.889 110.693C121.889 115.25 120.19 119.531 117.103 122.757Z" fill="#4E6851"/>
<path d="M62.9104 84.3664C64.0499 83.9403 64.6779 82.6718 64.358 81.4561L62.691 72.9465C62.5576 72.4253 62.7114 71.8703 63.0921 71.5072L68.2538 66.6053C68.632 66.2449 69.182 66.137 69.6585 66.3263L77.5612 68.8232C78.6887 69.2679 79.9594 68.7365 80.474 67.5945L82.8191 62.3874C83.3382 61.2428 82.9225 59.885 81.8734 59.2639L74.9943 54.5038C74.5478 54.2354 74.2779 53.7276 74.3059 53.1908L74.6337 45.918C74.6614 45.3786 74.9689 44.9023 75.4358 44.6811L82.7866 40.5894C83.8883 40.0762 84.4204 38.7556 84.012 37.5768L82.1458 32.1588C81.7349 30.972 80.5193 30.3143 79.3545 30.6485L71.1969 32.3823C70.6975 32.5298 70.1704 32.3667 69.8202 31.9665L65.1245 26.5836C64.774 26.1833 64.6683 25.6206 64.8546 25.1154L67.2479 16.8741C67.6739 15.6927 67.1648 14.3691 66.0679 13.8347L61.08 11.3851C59.9857 10.848 58.6793 11.2771 58.0818 12.3742L53.5227 19.5526C53.2677 20.0186 52.7813 20.2997 52.2667 20.2737L45.2969 19.9289C44.7825 19.9053 44.3184 19.5736 44.1093 19.0893L40.1931 11.4219C39.6963 10.2723 38.4354 9.71668 37.3006 10.1431L32.1112 12.0929C30.9739 12.5193 30.3436 13.7851 30.6664 15.0005L32.3305 23.5155C32.4668 24.031 32.313 24.589 31.9298 24.9494L26.7677 29.8539C26.3845 30.2143 25.8424 30.3249 25.3583 30.1356L17.4603 27.6358C16.3332 27.1887 15.0647 27.7255 14.5478 28.8671L12.2025 34.0722C11.6881 35.2142 12.0991 36.5773 13.1482 37.1981L20.0272 41.9581C20.476 42.2242 20.7434 42.7294 20.7157 43.2661L20.3879 50.5389C20.3678 51.0809 20.0524 51.5546 19.586 51.7755L12.2353 55.8669C11.133 56.3828 10.6011 57.7011 11.0098 58.8799L12.8783 64.2976C13.2867 65.4843 14.5023 66.142 15.6648 65.8108L23.8275 64.069C24.3218 63.9269 24.8563 64.09 25.2017 64.4899L29.8968 69.8737C30.2472 70.2736 30.3484 70.8419 30.1664 71.3444L27.7736 79.5857C27.35 80.7645 27.8596 82.0882 28.9536 82.6249L33.9416 85.0719C35.0385 85.6113 36.342 85.1772 36.9397 84.0851L41.4963 76.9043C41.7535 76.4413 42.2377 76.157 42.7546 76.1882L49.7247 76.5303C50.2416 76.5569 50.7006 76.8778 50.9148 77.3697L54.8284 85.0344C55.3279 86.1846 56.5861 86.745 57.7206 86.3185L62.9104 84.3664ZM51.8532 60.814C48.6328 62.0217 45.1508 61.8533 42.0514 60.3324C38.9524 58.8114 36.6122 56.1223 35.4497 52.7594C34.2923 49.3967 34.4537 45.7656 35.9115 42.5344C37.3688 39.2979 39.9484 36.856 43.1687 35.6459C46.3913 34.4353 49.8711 34.6037 52.9676 36.1299C56.0641 37.6455 58.4094 40.3349 59.5716 43.6976C60.7293 47.0606 60.5653 50.689 59.1103 53.9231C57.6477 57.154 55.0729 59.601 51.8532 60.814Z" fill="#4E6851"/>
<defs>
<filter id="filter0_f_125_612" x="0.872559" y="0" width="162.881" height="171" filterUnits="userSpaceOnUse" color-interpolation-filters="sRGB">
<feFlood flood-opacity="0" result="BackgroundImageFix"/>
<feBlend mode="normal" in="SourceGraphic" in2="BackgroundImageFix" result="shape"/>
<feGaussianBlur stdDeviation="5" result="effect1_foregroundBlur_125_612"/>
</filter>
</defs>
</svg>
