<svg width="136" height="137" viewBox="0 0 136 137" fill="none" xmlns="http://www.w3.org/2000/svg">
<path fill-rule="evenodd" clip-rule="evenodd" d="M63.5518 125.129C56.8338 132.138 47.3829 136.5 36.9143 136.5C16.5271 136.5 0 119.955 0 99.5452C0 79.1356 16.5271 62.5903 36.9143 62.5903C49.9661 62.5903 61.4359 69.3715 67.9999 79.6065C74.564 69.3715 86.0338 62.5903 99.0856 62.5903C119.473 62.5903 136 79.1356 136 99.5452C136 119.955 119.473 136.5 99.0856 136.5C88.617 136.5 79.1661 132.138 72.4481 125.129H63.5518Z" fill="#0F0E0E"/>
<path fill-rule="evenodd" clip-rule="evenodd" d="M99.0856 130.964C119.473 130.964 136 114.419 136 94.0093C136 73.7496 119.715 57.2977 99.5342 57.0571V57.0544H99.0856H36.466V57.0574C16.2854 57.2978 0 73.7498 0 94.0096C0 114.419 16.5271 130.965 36.9143 130.965C47.3831 130.965 56.834 126.602 63.552 119.594H72.4482C79.1662 126.602 88.617 130.964 99.0856 130.964Z" fill="#191919"/>
<rect x="31.2389" y="77.1051" width="11.2022" height="33.8084" rx="5.4" stroke="#919191" stroke-width="1.8"/>
<rect x="53.7992" y="88.3263" width="11.2165" height="33.7692" rx="5.4" transform="rotate(90 53.7992 88.3263)" stroke="#919191" stroke-width="1.8"/>
<rect x="32.1318" y="87.4263" width="9.41538" height="13.0165" fill="#191919"/>
<rect x="43.3408" y="89.2214" width="9.42574" height="13.0022" transform="rotate(90 43.3408 89.2214)" fill="#191919"/>
<g filter="url(#filter0_d_156_217)">
<path d="M106.407 108.223C106.407 112.271 103.129 115.552 99.0859 115.552C95.0433 115.552 91.765 112.271 91.765 108.223C91.765 104.174 95.0433 100.893 99.0859 100.893C103.129 100.893 106.407 104.174 106.407 108.223Z" stroke="#5184C7" stroke-width="1.2" shape-rendering="crispEdges"/>
</g>
<path d="M99.0857 108.223V110.168V111.888M99.0857 108.223L97.5165 107.363L96.2462 106.727M99.0857 108.223L100.655 107.363L102 106.727M97.5165 111.032L96.077 110.04C95.9958 109.984 95.9473 109.891 95.9473 109.793V108.226V106.755C95.9473 106.645 96.007 106.544 96.103 106.492L97.5165 105.717L98.9514 104.999C99.036 104.956 99.1355 104.956 99.22 104.999L100.655 105.717L102.068 106.492C102.164 106.544 102.224 106.645 102.224 106.755V108.226V109.793C102.224 109.891 102.176 109.984 102.094 110.04L100.655 111.032L99.2389 111.872C99.1445 111.928 99.027 111.928 98.9326 111.872L97.5165 111.032Z" stroke="#4E88D3" stroke-width="0.6" stroke-linecap="round"/>
<path d="M112.536 93.1118L113.433 94.0095" stroke="#C83936" stroke-width="0.6" stroke-linecap="round"/>
<path d="M113.581 92.8123C113.581 93.4732 113.046 94.0085 112.386 94.0085C111.727 94.0085 111.192 93.4732 111.192 92.8123C111.192 92.1514 111.727 91.6162 112.386 91.6162C113.046 91.6162 113.581 92.1514 113.581 92.8123Z" stroke="#C83936" stroke-width="0.6"/>
<path d="M115.076 94.7576H115.749M114.18 95.9545H115.749" stroke="#C83936" stroke-width="0.6" stroke-linecap="round"/>
<g filter="url(#filter1_d_156_217)">
<path d="M120.604 94.0094C120.604 98.0581 117.326 101.339 113.283 101.339C109.241 101.339 105.962 98.0581 105.962 94.0094C105.962 89.9608 109.241 86.6798 113.283 86.6798C117.326 86.6798 120.604 89.9608 120.604 94.0094Z" stroke="#982B29" stroke-width="1.2" shape-rendering="crispEdges"/>
</g>
<path d="M109.847 92.8093C109.847 91.4067 110.984 90.2697 112.386 90.2697C113.789 90.2697 114.926 91.4081 114.926 92.8108C114.926 94.2153 113.787 95.3551 112.383 95.3551H109.847V92.8093Z" stroke="#C73A38" stroke-width="0.6"/>
<mask id="path-14-inside-1_156_217" fill="white">
<path fill-rule="evenodd" clip-rule="evenodd" d="M111.789 95.2064C111.79 96.7757 113.062 98.0491 114.632 98.0491H117.468V95.2033C117.468 93.6351 116.197 92.3638 114.629 92.3638C114.627 92.3638 114.626 92.3638 114.625 92.3638C114.628 92.4123 114.629 92.4613 114.629 92.5105V92.5881C114.629 94.0341 113.457 95.2064 112.011 95.2064H111.789Z"/>
</mask>
<path d="M111.789 95.2064V94.6064H111.189L111.189 95.2067L111.789 95.2064ZM117.468 98.0491V98.6491H118.068V98.0491H117.468ZM114.625 92.3638L114.624 91.7638L113.99 91.7646L114.026 92.3979L114.625 92.3638ZM111.189 95.2067C111.19 97.1068 112.731 98.6491 114.632 98.6491V97.4491C113.394 97.4491 112.39 96.4446 112.389 95.2061L111.189 95.2067ZM114.632 98.6491H117.468V97.4491H114.632V98.6491ZM118.068 98.0491V95.2033H116.868V98.0491H118.068ZM118.068 95.2033C118.068 93.3037 116.528 91.7638 114.629 91.7638V92.9638C115.865 92.9638 116.868 93.9665 116.868 95.2033H118.068ZM114.629 91.7638C114.627 91.7638 114.626 91.7638 114.624 91.7638L114.626 92.9638C114.627 92.9638 114.628 92.9638 114.629 92.9638V91.7638ZM114.026 92.3979C114.028 92.4351 114.029 92.4726 114.029 92.5105H115.229C115.229 92.4499 115.227 92.3896 115.224 92.3297L114.026 92.3979ZM114.029 92.5105V92.5881H115.229V92.5105H114.029ZM114.029 92.5881C114.029 93.7028 113.125 94.6064 112.011 94.6064V95.8064C113.788 95.8064 115.229 94.3655 115.229 92.5881H114.029ZM112.011 94.6064H111.789V95.8064H112.011V94.6064Z" fill="#C73A38" mask="url(#path-14-inside-1_156_217)"/>
<g filter="url(#filter2_d_156_217)">
<path d="M106.407 79.796C106.407 83.8447 103.129 87.1256 99.0859 87.1256C95.0433 87.1256 91.765 83.8447 91.765 79.796C91.765 75.7474 95.0433 72.4665 99.0859 72.4665C103.129 72.4665 106.407 75.7474 106.407 79.796Z" stroke="#B18430" stroke-width="1.2" shape-rendering="crispEdges"/>
</g>
<path d="M100.132 76.28H96.5461C96.3804 76.28 96.2461 76.4143 96.2461 76.58V82.3649C96.2461 82.4444 96.2777 82.5206 96.3338 82.5769L96.6066 82.8499C96.6628 82.9062 96.7392 82.9379 96.8188 82.9379H101.227C101.292 82.9379 101.355 82.9168 101.407 82.8778L101.805 82.5791C101.881 82.5224 101.925 82.4335 101.925 82.3391V78.1502M100.132 76.28H100.302C100.384 76.28 100.463 76.3137 100.519 76.3733L101.843 77.7641C101.896 77.8199 101.925 77.8939 101.925 77.9709V78.1502M100.132 76.28V77.7268C100.132 77.8063 100.163 77.8826 100.22 77.9388L100.343 78.0622C100.399 78.1186 100.475 78.1502 100.555 78.1502H101.925M97.5911 79.3471H99.534M97.5911 80.3944H99.0857M97.5911 81.4417H98.4879" stroke="#E2AE41" stroke-width="0.6" stroke-linecap="round"/>
<g filter="url(#filter3_d_156_217)">
<path d="M92.2086 94.0094C92.2086 98.0581 88.9303 101.339 84.8877 101.339C80.8451 101.339 77.5668 98.0581 77.5668 94.0094C77.5668 89.9608 80.8451 86.6798 84.8877 86.6798C88.9303 86.6798 92.2086 89.9608 92.2086 94.0094Z" stroke="#88B652" stroke-width="1.2" shape-rendering="crispEdges"/>
</g>
<path d="M86.233 91.1667L83.9912 97.1513" stroke="#89C051" stroke-width="0.6" stroke-linecap="round"/>
<path d="M83.0947 92.6631L81.6002 93.86L81.3728 94.0422C81.2978 94.1022 81.2978 94.2163 81.3728 94.2763L81.6002 94.4585L83.1694 95.5806" stroke="#89C051" stroke-width="0.6" stroke-linecap="round"/>
<path d="M87.2051 95.5806L88.6996 94.3836L88.9271 94.2015C89.002 94.1414 89.002 94.0274 88.9271 93.9673L88.6996 93.7852L87.1304 92.6631" stroke="#89C051" stroke-width="0.6" stroke-linecap="round"/>
<path d="M104.39 39.9983C106.828 39.9983 109.166 39.1077 110.89 37.5224C112.613 35.9371 113.582 33.787 113.582 31.545C113.582 29.3031 112.613 27.153 110.89 25.5677C109.166 23.9824 106.828 23.0918 104.39 23.0918L104.39 28.5864C105.244 28.5864 106.062 28.8981 106.665 29.453C107.268 30.0078 107.607 30.7604 107.607 31.545C107.607 32.3297 107.268 33.0823 106.665 33.6371C106.062 34.192 105.244 34.5037 104.39 34.5037V39.9983Z" fill="#D9D9D9"/>
<path d="M61.6482 17.4065C62.8552 17.4065 64.0504 17.1878 65.1656 16.763C66.2807 16.3382 67.2939 15.7155 68.1474 14.9306C69.0009 14.1456 69.6779 13.2138 70.1398 12.1882C70.6017 11.1626 70.8394 10.0633 70.8394 8.95325H64.8202C64.8202 9.33635 64.7382 9.71571 64.5788 10.0696C64.4194 10.4236 64.1857 10.7452 63.8912 11.0161C63.5966 11.287 63.2469 11.5019 62.8621 11.6485C62.4773 11.7951 62.0648 11.8706 61.6482 11.8706V17.4065Z" fill="#D9D9D9"/>
<path d="M74.052 34.4627C72.8449 34.4627 71.6498 34.6813 70.5346 35.1061C69.4195 35.5309 68.4063 36.1536 67.5528 36.9385C66.6993 37.7235 66.0223 38.6554 65.5604 39.681C65.0985 40.7066 64.8607 41.8058 64.8607 42.9159H70.8378C70.8378 42.5277 70.9209 42.1433 71.0824 41.7846C71.2439 41.426 71.4807 41.1001 71.7792 40.8256C72.0776 40.5511 72.432 40.3333 72.8219 40.1848C73.2119 40.0362 73.6299 39.9598 74.052 39.9598V34.4627Z" fill="#D9D9D9"/>
<path d="M31.0851 11.8706C29.986 11.8706 28.8977 12.0873 27.8823 12.5084C26.8669 12.9294 25.9443 13.5466 25.1671 14.3246C24.39 15.1026 23.7735 16.0262 23.3529 17.0428C22.9323 18.0593 22.7158 19.1488 22.7158 20.249C22.7158 21.3493 22.9323 22.4388 23.3529 23.4553C23.7735 24.4719 24.39 25.3955 25.1671 26.1735C25.9443 26.9515 26.8669 27.5687 27.8823 27.9897C28.8977 28.4108 29.986 28.6275 31.0851 28.6275L31.0851 23.0935C30.7119 23.0935 30.3424 23.0199 29.9977 22.877C29.653 22.7341 29.3398 22.5245 29.0759 22.2604C28.8121 21.9963 28.6028 21.6827 28.46 21.3376C28.3172 20.9925 28.2437 20.6226 28.2437 20.249C28.2437 19.8755 28.3172 19.5056 28.46 19.1605C28.6028 18.8154 28.8121 18.5018 29.0759 18.2377C29.3398 17.9736 29.653 17.764 29.9977 17.6211C30.3424 17.4781 30.7119 17.4046 31.0851 17.4046V11.8706Z" fill="#D9D9D9"/>
<rect x="31.085" y="11.8706" width="30.6374" height="5.53575" fill="#D9D9D9"/>
<path d="M67.8499 0.5C69.5006 0.5 70.8389 1.83823 70.8389 3.48901V9.02805H64.8608V3.48901C64.8608 1.83822 66.1991 0.5 67.8499 0.5Z" fill="#D9D9D9"/>
<rect x="31.085" y="23.0918" width="74.2769" height="5.53575" fill="#D9D9D9"/>
<rect x="73.9775" y="34.4626" width="31.3846" height="5.53575" fill="#D9D9D9"/>
<rect x="64.8613" y="42.6914" width="5.97802" height="3.14191" fill="#D9D9D9"/>
<path d="M60.8262 48.8333C60.8262 47.1764 62.1693 45.8333 63.8262 45.8333H72.1734C73.8303 45.8333 75.1734 47.1764 75.1734 48.8333V57.0544H60.8262V48.8333Z" fill="#8C95A0"/>
<defs>
<filter id="filter0_d_156_217" x="89.815" y="98.9432" width="18.5418" height="18.5591" filterUnits="userSpaceOnUse" color-interpolation-filters="sRGB">
<feFlood flood-opacity="0" result="BackgroundImageFix"/>
<feColorMatrix in="SourceAlpha" type="matrix" values="0 0 0 0 0 0 0 0 0 0 0 0 0 0 0 0 0 0 127 0" result="hardAlpha"/>
<feMorphology radius="0.75" operator="dilate" in="SourceAlpha" result="effect1_dropShadow_156_217"/>
<feOffset/>
<feGaussianBlur stdDeviation="0.3"/>
<feComposite in2="hardAlpha" operator="out"/>
<feColorMatrix type="matrix" values="0 0 0 0 0.290196 0 0 0 0 0.513726 0 0 0 0 0.796078 0 0 0 1 0"/>
<feBlend mode="normal" in2="BackgroundImageFix" result="effect1_dropShadow_156_217"/>
<feBlend mode="normal" in="SourceGraphic" in2="effect1_dropShadow_156_217" result="shape"/>
</filter>
<filter id="filter1_d_156_217" x="104.012" y="84.7298" width="18.5418" height="18.5591" filterUnits="userSpaceOnUse" color-interpolation-filters="sRGB">
<feFlood flood-opacity="0" result="BackgroundImageFix"/>
<feColorMatrix in="SourceAlpha" type="matrix" values="0 0 0 0 0 0 0 0 0 0 0 0 0 0 0 0 0 0 127 0" result="hardAlpha"/>
<feMorphology radius="0.75" operator="dilate" in="SourceAlpha" result="effect1_dropShadow_156_217"/>
<feOffset/>
<feGaussianBlur stdDeviation="0.3"/>
<feComposite in2="hardAlpha" operator="out"/>
<feColorMatrix type="matrix" values="0 0 0 0 0.596078 0 0 0 0 0.168627 0 0 0 0 0.160784 0 0 0 1 0"/>
<feBlend mode="normal" in2="BackgroundImageFix" result="effect1_dropShadow_156_217"/>
<feBlend mode="normal" in="SourceGraphic" in2="effect1_dropShadow_156_217" result="shape"/>
</filter>
<filter id="filter2_d_156_217" x="89.815" y="70.5165" width="18.5418" height="18.5591" filterUnits="userSpaceOnUse" color-interpolation-filters="sRGB">
<feFlood flood-opacity="0" result="BackgroundImageFix"/>
<feColorMatrix in="SourceAlpha" type="matrix" values="0 0 0 0 0 0 0 0 0 0 0 0 0 0 0 0 0 0 127 0" result="hardAlpha"/>
<feMorphology radius="0.75" operator="dilate" in="SourceAlpha" result="effect1_dropShadow_156_217"/>
<feOffset/>
<feGaussianBlur stdDeviation="0.3"/>
<feComposite in2="hardAlpha" operator="out"/>
<feColorMatrix type="matrix" values="0 0 0 0 0.694118 0 0 0 0 0.517647 0 0 0 0 0.188235 0 0 0 1 0"/>
<feBlend mode="normal" in2="BackgroundImageFix" result="effect1_dropShadow_156_217"/>
<feBlend mode="normal" in="SourceGraphic" in2="effect1_dropShadow_156_217" result="shape"/>
</filter>
<filter id="filter3_d_156_217" x="75.6168" y="84.7298" width="18.5418" height="18.5591" filterUnits="userSpaceOnUse" color-interpolation-filters="sRGB">
<feFlood flood-opacity="0" result="BackgroundImageFix"/>
<feColorMatrix in="SourceAlpha" type="matrix" values="0 0 0 0 0 0 0 0 0 0 0 0 0 0 0 0 0 0 127 0" result="hardAlpha"/>
<feMorphology radius="0.75" operator="dilate" in="SourceAlpha" result="effect1_dropShadow_156_217"/>
<feOffset/>
<feGaussianBlur stdDeviation="0.3"/>
<feComposite in2="hardAlpha" operator="out"/>
<feColorMatrix type="matrix" values="0 0 0 0 0.533333 0 0 0 0 0.713726 0 0 0 0 0.321569 0 0 0 1 0"/>
<feBlend mode="normal" in2="BackgroundImageFix" result="effect1_dropShadow_156_217"/>
<feBlend mode="normal" in="SourceGraphic" in2="effect1_dropShadow_156_217" result="shape"/>
</filter>
</defs>
</svg>
