<svg width="60" height="60" viewBox="0 0 60 60" fill="none" xmlns="http://www.w3.org/2000/svg">
<g clip-path="url(#clip0_120_26)">
<mask id="mask0_120_26" style="mask-type:luminance" maskUnits="userSpaceOnUse" x="0" y="0" width="60" height="60">
<path d="M59.7033 0H0.297363V60H59.7033V0Z" fill="white"/>
</mask>
<g mask="url(#mask0_120_26)">
<path d="M0.297363 28.8C0.297363 15.2236 0.297363 8.43534 4.47327 4.21766C8.64919 0 15.3702 0 28.8122 0H31.1885C44.6305 0 51.3515 0 55.5274 4.21766C59.7033 8.43534 59.7033 15.2236 59.7033 28.8V31.2C59.7033 44.7764 59.7033 51.5647 55.5274 55.7824C51.3515 60 44.6305 60 31.1885 60H28.8122C15.3702 60 8.64919 60 4.47327 55.7824C0.297363 51.5647 0.297363 44.7764 0.297363 31.2V28.8Z" fill="#0077FF"/>
<path d="M31.9064 43.2251C18.3668 43.2251 10.6441 33.8501 10.3223 18.2501H17.1045C17.3272 29.7001 22.3271 34.5501 26.2875 35.5501V18.2501H32.6739V28.125C36.5847 27.7001 40.6931 23.2001 42.0793 18.2501H48.4656C47.4013 24.3501 42.9458 28.8501 39.7775 30.7001C42.9458 32.2001 48.0203 36.1251 49.951 43.2251H42.9211C41.4112 38.4751 37.6491 34.8001 32.6739 34.3001V43.2251H31.9064Z" fill="white"/>
</g>
</g>
<defs>
<clipPath id="clip0_120_26">
<rect width="60" height="60" fill="white"/>
</clipPath>
</defs>
</svg>
