<svg width="116" height="117" viewBox="0 0 116 117" fill="none" xmlns="http://www.w3.org/2000/svg">
<path d="M60.436 0.5C86.652 0.5 99.76 0.5 107.88 8.62C116 16.74 116 29.848 116 56.064V60.936C116 87.152 116 100.26 107.88 108.38C99.76 116.5 86.652 116.5 60.436 116.5H55.564C29.348 116.5 16.24 116.5 8.12 108.38C0 100.26 0 87.152 0 60.939V56.061C0 29.845 0 16.74 8.12 8.62C16.24 0.5 29.348 0.5 55.564 0.5L60.436 0.5Z" fill="#0077FF"/>
<path d="M0.348 33.0989C0 39.3569 0 46.8999 0 56.0609V60.9329C0 67.8929 0 73.8119 0.116 79.0289C15.312 86.4589 35.728 90.9799 58 90.9799C80.272 90.9799 100.688 86.4589 115.884 79.0319C116 73.8119 116 67.7799 116 60.9389V56.0669C116 46.9058 116 39.3629 115.652 32.9858H0.348V33.0989Z" fill="#0009B4"/>
<path d="M80.6345 70.1298C86.7289 70.1298 91.6694 65.1893 91.6694 59.0949C91.6694 53.0005 86.7289 48.0601 80.6345 48.0601C74.5401 48.0601 69.5996 53.0005 69.5996 59.0949C69.5996 65.1893 74.5401 70.1298 80.6345 70.1298Z" stroke="white" stroke-width="11.691"/>
<path d="M48.7202 72.4199L23.2002 46.8999M48.7202 46.8999L23.2002 72.4199" stroke="white" stroke-width="11.691"/>
</svg>
