<svg width="142" height="142" viewBox="0 0 142 142" fill="none" xmlns="http://www.w3.org/2000/svg">
<path d="M0 15C0 6.71573 6.71573 0 15 0H142V127C142 135.284 135.284 142 127 142H0V15Z" fill="#DCC9A9"/>
<g clip-path="url(#clip0_199_2)">
<path d="M28.4604 15.1649C27.3303 14.7725 26.1228 14.6562 24.9386 14.8255C23.7544 14.9949 22.6278 15.4451 21.653 16.1385C20.6783 16.8319 19.8835 17.7485 19.335 18.8116C18.7866 19.8747 18.5004 21.0537 18.5004 22.2499V65.4649C18.3041 73.9078 20.0274 82.2851 23.5404 89.9649C31.7254 106.76 47.6254 118.965 68.3654 126.775C70.0658 127.414 71.9401 127.414 73.6404 126.775C94.3804 118.985 110.275 106.775 118.46 89.9649C121.973 82.2851 123.697 73.9078 123.5 65.4649V22.2499C123.5 21.0537 123.214 19.8747 122.666 18.8116C122.117 17.7485 121.323 16.8319 120.348 16.1385C119.373 15.4451 118.246 14.9949 117.062 14.8255C115.878 14.6562 114.671 14.7725 113.54 15.1649C86.0357 25.0149 55.9652 25.0149 28.4604 15.1649Z" stroke="#4E6851" stroke-width="7.5" stroke-linecap="round" stroke-linejoin="round"/>
<path d="M48.5 76.625C48.7596 82.3398 51.2731 87.7189 55.4902 91.5846C59.7072 95.4502 65.2842 97.4874 71 97.25C76.7158 97.4874 82.2928 95.4502 86.5098 91.5846C90.7269 87.7189 93.2404 82.3398 93.5 76.625" stroke="#4E6851" stroke-width="7.5" stroke-linecap="round" stroke-linejoin="round"/>
<path d="M56 54.125C56 51.6386 55.0123 49.254 53.2541 47.4959C51.496 45.7377 49.1114 44.75 46.625 44.75C44.1386 44.75 41.754 45.7377 39.9959 47.4959C38.2377 49.254 37.25 51.6386 37.25 54.125" stroke="#4E6851" stroke-width="7.5" stroke-linecap="round" stroke-linejoin="round"/>
<path d="M104.75 54.125C104.75 51.6386 103.762 49.254 102.004 47.4959C100.246 45.7377 97.8614 44.75 95.375 44.75C92.8886 44.75 90.504 45.7377 88.7459 47.4959C86.9877 49.254 86 51.6386 86 54.125" stroke="#4E6851" stroke-width="7.5" stroke-linecap="round" stroke-linejoin="round"/>
</g>
<defs>
<clipPath id="clip0_199_2">
<rect width="120" height="120" fill="white" transform="translate(11 11)"/>
</clipPath>
</defs>
</svg>
