<svg width="142" height="142" viewBox="0 0 142 142" fill="none" xmlns="http://www.w3.org/2000/svg">
<path d="M0 15C0 6.71573 6.71573 0 15 0H142V127C142 135.284 135.284 142 127 142H0V15Z" fill="#DCC9A9"/>
<g clip-path="url(#clip0_199_54)">
<path d="M70.7314 74.75V127.25" stroke="#4E6851" stroke-width="7.5" stroke-linecap="round" stroke-linejoin="round"/>
<path d="M70.7285 127.25C70.7285 127.25 65.0785 111.795 39.1885 95.3201" stroke="#4E6851" stroke-width="7.5" stroke-linecap="round" stroke-linejoin="round"/>
<path d="M29.3073 106C34.4373 111.58 42.5173 113.615 47.4223 103.18C59.5573 96.0001 54.5823 86.9101 47.6873 82.1501C42.5933 79.6673 36.9862 78.4188 31.3201 78.5057C25.6539 78.5926 20.0878 80.0123 15.0723 82.6501C23.3523 90.6751 22.9273 99.0451 29.3073 106Z" stroke="#4E6851" stroke-width="7.5" stroke-linecap="round" stroke-linejoin="round"/>
<path d="M70.7314 127.25C70.7314 127.25 76.3814 111.795 102.276 95.3201" stroke="#4E6851" stroke-width="7.5" stroke-linecap="round" stroke-linejoin="round"/>
<path d="M112.154 106C107.029 111.58 98.9441 113.615 94.0441 103.18C81.9091 95.9901 86.8841 86.9051 93.7741 82.1451C98.8691 79.6627 104.477 78.4144 110.144 78.5013C115.811 78.5882 121.378 80.0077 126.394 82.6451C118.109 90.6751 118.539 99.0451 112.154 106Z" stroke="#4E6851" stroke-width="7.5" stroke-linecap="round" stroke-linejoin="round"/>
<path d="M40.7314 44.75C40.7314 48.6897 41.5074 52.5907 43.0151 56.2305C44.5227 59.8703 46.7325 63.1774 49.5182 65.9632C52.304 68.749 55.6112 70.9587 59.2509 72.4664C62.8907 73.974 66.7918 74.75 70.7314 74.75C74.6711 74.75 78.5722 73.974 82.2119 72.4664C85.8517 70.9587 89.1589 68.749 91.9446 65.9632C94.7304 63.1774 96.9402 59.8703 98.4478 56.2305C99.9555 52.5907 100.731 48.6897 100.731 44.75C100.731 36.7935 97.5707 29.1629 91.9446 23.5368C86.3186 17.9107 78.6879 14.75 70.7314 14.75C62.775 14.75 55.1443 17.9107 49.5182 23.5368C43.8921 29.1629 40.7314 36.7935 40.7314 44.75Z" stroke="#4E6851" stroke-width="7.5" stroke-linecap="round" stroke-linejoin="round"/>
<path d="M66 43.5H74.75C79.5825 43.5 83.5 39.5825 83.5 34.75V34.75C83.5 29.9175 79.5825 26 74.75 26H71C68.2386 26 66 28.2386 66 31V43.5ZM66 43.5V66M61 53.5H66H71" stroke="#4E6851" stroke-width="7.5" stroke-linecap="round"/>
</g>
<defs>
<clipPath id="clip0_199_54">
<rect width="120" height="120" fill="white" transform="translate(11 11)"/>
</clipPath>
</defs>
</svg>
