<svg width="147" height="103" viewBox="0 0 147 103" fill="none" xmlns="http://www.w3.org/2000/svg">
<path d="M0.810547 88.9302V83.8081H2.56752C3.13956 83.8081 3.58902 83.9301 3.89547 84.1536C4.20192 84.3772 4.34493 84.7228 4.34493 85.1903C4.34493 85.4342 4.28364 85.6374 4.16106 85.8204C4.03848 86.0033 3.85461 86.1456 3.60945 86.2472C3.89547 86.3285 4.09977 86.4708 4.26321 86.6741C4.40622 86.8773 4.48794 87.1212 4.48794 87.4261C4.48794 87.9139 4.3245 88.2798 4.01805 88.544C3.7116 88.8083 3.26215 88.9302 2.69011 88.9302H0.810547ZM1.70947 85.9627H2.58796C2.87398 85.9627 3.07827 85.9017 3.24171 85.7797C3.40515 85.6578 3.46644 85.4748 3.46644 85.2512C3.46644 85.0073 3.38472 84.8244 3.24171 84.7024C3.0987 84.5805 2.87397 84.5398 2.56752 84.5398H1.70947V85.9627ZM1.70947 86.6131V88.2188H2.71054C2.99656 88.2188 3.20085 88.1578 3.36429 88.0156C3.52773 87.8733 3.58902 87.6903 3.58902 87.4464C3.58902 86.918 3.32343 86.6334 2.77182 86.6334H1.70947V86.6131Z" fill="#52C5CE"/>
<path d="M8.71724 83.7878L10.2086 87.7107L11.6796 83.7878H12.8441V88.91H11.9452V87.2229L12.0269 84.9667L10.5151 88.91H9.88175L8.36993 84.9667L8.45165 87.2229V88.91H7.55273V83.7878H8.71724Z" fill="#52C5CE"/>
<path d="M19.0949 86.6334H16.9702V88.2188H19.4422V88.9302H16.0713V83.8081H19.4218V84.5195H16.9702V85.9423H19.0949V86.6334Z" fill="#52C5CE"/>
<path d="M26.2667 87.2635C26.2054 87.8123 26.0215 88.2391 25.6538 88.544C25.3065 88.8489 24.8366 89.0115 24.2441 89.0115C23.8355 89.0115 23.4678 88.9099 23.1613 88.727C22.8549 88.544 22.6097 88.2595 22.4463 87.8936C22.2828 87.5481 22.1807 87.1212 22.1807 86.6537V86.1659C22.1807 85.6781 22.2624 85.2512 22.4463 84.8854C22.6097 84.5195 22.8753 84.235 23.1817 84.0317C23.5086 83.8284 23.8764 83.7268 24.3054 83.7268C24.8774 83.7268 25.3269 83.8894 25.6742 84.1943C26.0215 84.4992 26.2258 84.926 26.2871 85.4952H25.3882C25.3473 85.1293 25.2452 84.8651 25.0613 84.7024C24.8774 84.5398 24.6323 84.4585 24.3054 84.4585C23.9172 84.4585 23.6108 84.6008 23.4065 84.8854C23.2022 85.1699 23.0796 85.5765 23.0796 86.1253V86.5724C23.0796 87.1212 23.1817 87.5481 23.386 87.8326C23.5903 88.1172 23.8764 88.2595 24.2645 88.2595C24.6118 88.2595 24.8774 88.1782 25.0613 88.0156C25.2452 87.853 25.3473 87.5887 25.3882 87.2229H26.2667V87.2635Z" fill="#52C5CE"/>
<path d="M32.8653 84.5195H31.2513V88.9302H30.3728V84.5195H28.7793V83.8081H32.8653V84.5195Z" fill="#52C5CE"/>
<path d="M38.7287 86.6334H36.604V88.2188H39.076V88.9302H35.7051V83.8081H39.0556V84.5195H36.604V85.9423H38.7287V86.6334Z" fill="#52C5CE"/>
<path d="M49.9034 87.2635C49.8421 87.8123 49.6582 88.2391 49.2905 88.544C48.9432 88.8489 48.4733 89.0115 47.8808 89.0115C47.4722 89.0115 47.1045 88.9099 46.798 88.727C46.4916 88.544 46.2464 88.2595 46.083 87.8936C45.9195 87.5481 45.8174 87.1212 45.8174 86.6537V86.1659C45.8174 85.6781 45.8991 85.2512 46.083 84.8854C46.2464 84.5195 46.512 84.235 46.8185 84.0317C47.1453 83.8284 47.5131 83.7268 47.9421 83.7268C48.5141 83.7268 48.9636 83.8894 49.3109 84.1943C49.6582 84.4992 49.8625 84.926 49.9238 85.4952H49.0249C48.984 85.1293 48.8819 84.8651 48.698 84.7024C48.5141 84.5398 48.269 84.4585 47.9421 84.4585C47.5539 84.4585 47.2475 84.6008 47.0432 84.8854C46.8389 85.1699 46.7163 85.5765 46.7163 86.1253V86.5724C46.7163 87.1212 46.8185 87.5481 47.0228 87.8326C47.2271 88.1172 47.5131 88.2595 47.9012 88.2595C48.2486 88.2595 48.5141 88.1782 48.698 88.0156C48.8819 87.853 48.984 87.5887 49.0249 87.2229H49.9034V87.2635Z" fill="#52C5CE"/>
<path d="M56.9729 86.4911C56.9729 86.9993 56.8912 87.4261 56.7073 87.8123C56.5439 88.1985 56.2783 88.4831 55.9514 88.6863C55.6245 88.8896 55.2568 88.9912 54.8278 88.9912C54.3987 88.9912 54.031 88.8896 53.7041 88.6863C53.3772 88.4831 53.1321 88.1985 52.9482 87.8123C52.7643 87.4464 52.6826 86.9993 52.6826 86.5114V86.2269C52.6826 85.7187 52.7643 85.2919 52.9482 84.9057C53.1321 84.5195 53.3772 84.235 53.7041 84.0317C54.031 83.8284 54.3987 83.7268 54.8278 83.7268C55.2568 83.7268 55.6245 83.8284 55.9514 84.0317C56.2783 84.235 56.5235 84.5195 56.7073 84.9057C56.8912 85.2919 56.9729 85.7187 56.9729 86.2269V86.4911ZM56.0944 86.2269C56.0944 85.6578 55.9923 85.2309 55.7675 84.926C55.5428 84.6211 55.2364 84.4789 54.8482 84.4789C54.46 84.4789 54.1536 84.6211 53.9493 84.926C53.7245 85.2309 53.6224 85.6578 53.6224 86.2066V86.4911C53.6224 87.0602 53.7245 87.4871 53.9493 87.792C54.174 88.0969 54.4805 88.2595 54.8686 88.2595C55.2568 88.2595 55.5632 88.1172 55.788 87.8123C56.0127 87.5074 56.1149 87.0806 56.1149 86.4911V86.2269H56.0944Z" fill="#52C5CE"/>
<path d="M62.6112 85.1903C62.6112 84.9667 62.5294 84.7838 62.3456 84.6415C62.1617 84.4992 61.937 84.4382 61.6305 84.4382C61.3649 84.4382 61.1606 84.4992 60.9768 84.6415C60.8133 84.7838 60.7112 84.9464 60.7112 85.1699H59.8123C59.8123 84.8854 59.894 84.6415 60.037 84.4179C60.2004 84.1943 60.4047 84.0317 60.6908 83.9097C60.9563 83.7878 61.2628 83.7268 61.6101 83.7268C62.2026 83.7268 62.652 83.8488 62.9789 84.113C63.3058 84.3772 63.4692 84.7228 63.4692 85.1903C63.4692 85.4139 63.4079 85.6374 63.2649 85.8204C63.1219 86.0236 62.9176 86.1659 62.6725 86.2879C62.9585 86.3895 63.1832 86.5318 63.3262 86.735C63.4692 86.9383 63.551 87.1822 63.551 87.4871C63.551 87.9546 63.3671 88.3205 63.0198 88.5847C62.6725 88.8489 62.2026 88.9912 61.6101 88.9912C61.2424 88.9912 60.9155 88.9302 60.6295 88.788C60.3434 88.666 60.1187 88.4831 59.9757 88.2595C59.8327 88.0359 59.751 87.7717 59.751 87.4871H60.6499C60.6499 87.7107 60.752 87.8936 60.9155 88.0562C61.0994 88.1985 61.3241 88.2798 61.6101 88.2798C61.937 88.2798 62.1821 88.1985 62.366 88.0562C62.5499 87.9139 62.652 87.7107 62.652 87.4871C62.652 87.2025 62.5703 86.9789 62.4069 86.857C62.2434 86.735 61.9983 86.6537 61.6714 86.6537H61.0585V85.9423H61.6305C62.3047 85.9627 62.6112 85.6984 62.6112 85.1903Z" fill="#52C5CE"/>
<path d="M71.335 90.1904H70.4769V88.9302H67.0855V90.1904H66.2275L66.207 88.2188H66.6156C66.8199 88.0156 66.9834 87.731 67.1059 87.3651C67.2285 86.9789 67.3102 86.5521 67.3511 86.0846L67.4941 83.8081H70.7425V88.2188H71.3962L71.335 90.1904ZM67.6371 88.2188H69.8436V84.5195H68.3522L68.2705 85.9627C68.1887 86.918 67.9844 87.67 67.6371 88.2188Z" fill="#52C5CE"/>
<path d="M77.1572 87.731H75.1551L74.7465 88.9302H73.8271L75.768 83.8081H76.5648L78.5056 88.9302H77.5658L77.1572 87.731ZM75.4207 87.0196H76.9121L76.1766 84.8854L75.4207 87.0196Z" fill="#52C5CE"/>
<path d="M84.2874 86.6334H82.1627V88.2188H84.6551V88.9302H81.2842V83.8081H84.6347V84.5195H82.1831V85.9423H84.3078V86.6334H84.2874Z" fill="#52C5CE"/>
<path d="M88.7006 83.7878L90.192 87.7107L91.663 83.7878H92.8275V88.91H91.9286V87.2229L92.0103 84.9667L90.4985 88.91H89.8651L88.3533 84.9667L88.4351 87.2229V88.91H87.5361V83.7878H88.7006Z" fill="#52C5CE"/>
<path d="M103.287 84.5195H100.918V85.7594H101.98C102.348 85.7594 102.675 85.8204 102.961 85.9627C103.247 86.0846 103.451 86.2675 103.594 86.5114C103.737 86.7554 103.819 87.0196 103.819 87.3245C103.819 87.8123 103.655 88.1782 103.328 88.4831C103.001 88.7676 102.552 88.9302 102 88.9302H100.039V83.8081H103.308V84.5195H103.287ZM100.918 86.4708V88.1985H101.959C102.266 88.1985 102.491 88.1172 102.654 87.9546C102.818 87.792 102.899 87.5684 102.899 87.3042C102.899 87.0399 102.818 86.8367 102.654 86.6944C102.491 86.5521 102.266 86.4708 101.959 86.4708H100.918Z" fill="#52C5CE"/>
<path d="M108.558 86.4709L109.58 83.7878H110.581L108.783 88.036L108.619 88.3612C108.395 88.788 108.006 88.9913 107.475 88.9913L107.108 88.9709V88.2595C107.169 88.2595 107.271 88.2799 107.414 88.2799C107.659 88.2799 107.843 88.1782 107.945 87.9546L108.129 87.5278L106.372 83.7878H107.353L108.558 86.4709Z" fill="#52C5CE"/>
<path d="M117.895 90.1904H117.036V88.9302H113.645V90.1904H112.787L112.767 88.2188H113.175C113.38 88.0156 113.543 87.731 113.666 87.3651C113.788 86.9789 113.87 86.5521 113.911 86.0846L114.054 83.8081H117.302V88.2188H117.956L117.895 90.1904ZM114.176 88.2188H116.383V84.5195H114.891L114.81 85.9627C114.728 86.918 114.524 87.67 114.176 88.2188Z" fill="#52C5CE"/>
<path d="M122.634 86.4709L123.656 83.7878H124.657L122.859 88.036L122.696 88.3612C122.471 88.788 122.083 88.9913 121.551 88.9913L121.184 88.9709V88.2595C121.245 88.2595 121.347 88.2799 121.49 88.2799C121.735 88.2799 121.919 88.1782 122.021 87.9546L122.205 87.5278L120.448 83.7878H121.429L122.634 86.4709Z" fill="#52C5CE"/>
<path d="M128.417 83.7878V88.1986H129.99V83.7878H130.889V88.1986H132.441V83.7878H133.34V88.2392H133.933L133.871 90.1498H133.095V88.91H127.538V83.7878H128.417Z" fill="#52C5CE"/>
<path d="M139.918 86.6334H137.793V88.2188H140.265V88.9302H136.895V83.8081H140.245V84.5195H137.793V85.9423H139.918V86.6334Z" fill="#52C5CE"/>
<path d="M146.191 86.6334H144.066V88.2188H146.538V88.9302H143.167V83.8081H146.518V84.5195H144.066V85.9423H146.191V86.6334Z" fill="#52C5CE"/>
<path d="M12.8643 64.7628C11.9245 63.8481 10.5353 63.3806 8.67617 63.3806H0.831055V64.966C2.05685 64.966 3.03749 64.9864 3.03749 64.9864H8.65574C9.88154 64.9864 10.8213 65.2506 11.4955 65.7994C12.1697 66.3482 12.517 67.1612 12.517 68.2588C12.517 69.3564 12.1697 70.1695 11.4955 70.6979C10.8213 71.2264 9.88154 71.511 8.65574 71.511L0.851486 71.5313V80.3527H2.62889V73.1167H8.6966C10.5353 73.1167 11.945 72.6695 12.8847 71.7549C13.8245 70.8402 14.2944 69.6816 14.2944 68.2588C14.274 66.8563 13.8041 65.6774 12.8643 64.7628Z" fill="#3164AF"/>
<path d="M108.864 64.7628C107.925 63.8481 106.535 63.3806 104.676 63.3806H96.8516V64.9457C98.0978 64.966 99.9365 64.9864 99.9365 64.9864H104.656C105.882 64.9864 106.821 65.2506 107.496 65.7994C108.17 66.3482 108.517 67.1612 108.517 68.2588C108.517 69.3564 108.17 70.1695 107.496 70.6979C106.821 71.2264 105.882 71.511 104.656 71.511H98.629H96.8516V80.3527H98.629V73.1167H104.676C106.515 73.1167 107.925 72.6695 108.864 71.7549C109.804 70.8402 110.274 69.6816 110.274 68.2588C110.274 66.8563 109.804 65.6774 108.864 64.7628Z" fill="#3164AF"/>
<path d="M29.9644 64.9457V63.3806H16.0107V64.9254C17.8494 64.9254 28.0031 64.9457 29.9644 64.9457Z" fill="#3164AF"/>
<path d="M22.0986 66.8564V80.3528H23.876V66.8768L22.0986 66.8564Z" fill="#3164AF"/>
<path d="M119.488 64.6612C121.368 64.6612 122.941 65.2506 124.228 66.4498C125.025 67.2019 125.577 68.0759 125.944 69.0922C126.578 69.0922 127.19 69.0922 127.783 69.0922C127.374 67.7914 126.721 66.6125 125.699 65.5962C124.024 63.9091 121.94 63.0554 119.488 63.0554C117.854 63.0554 116.444 63.4416 115.219 64.214C113.993 64.9864 113.033 66.0433 112.338 67.3645H114.299C115.505 65.5555 117.241 64.6612 119.488 64.6612Z" fill="#3164AF"/>
<path d="M126.394 71.0638H116.608V72.6695H126.394C126.23 74.5395 125.495 76.0843 124.187 77.2632C122.9 78.4624 121.327 79.0519 119.468 79.0519C117.221 79.0519 115.484 78.1372 114.258 76.3485H112.297C112.991 77.6697 113.952 78.7266 115.178 79.499C116.403 80.2714 117.833 80.6576 119.447 80.6576C121.919 80.6576 123.983 79.8039 125.658 78.1169C127.333 76.4298 128.171 74.3363 128.171 71.8362C128.171 71.5516 128.11 71.328 128.089 71.0435C128.13 71.0638 126.394 71.0435 126.394 71.0638Z" fill="#3164AF"/>
<path d="M70.6406 63.3806L63.0611 78.5844L55.2977 63.3806H53.459L54.6031 65.962V65.901L61.9579 80.3527H64.2256L71.3352 65.901V80.3527H73.1126V63.3806H70.6406Z" fill="#3164AF"/>
<path d="M79.425 63.3806H77.6885V80.3527H79.282L79.425 63.3806Z" fill="#3164AF"/>
<path d="M90.0893 63.3806L82.2441 74.255V77.1006L90.4979 65.6368V80.3527H92.2753V63.3806H90.0893Z" fill="#3164AF"/>
<path d="M37.5231 71.7955L33.1715 63.3806H31.2715L36.6241 73.8078C36.9102 73.137 37.237 72.446 37.5231 71.7955Z" fill="#3164AF"/>
<path d="M43.8561 63.3806L37.3798 76.7347C37.0325 77.4868 36.6443 78.0153 36.2153 78.2998C35.7863 78.5844 35.2142 78.7267 34.5401 78.7267H33.5186V80.3324H34.9895C35.7659 80.3324 36.3992 80.2104 36.8691 79.9462C37.3594 79.682 37.768 79.2958 38.0949 78.808C38.4218 78.3201 38.8508 77.5274 39.3615 76.4298L45.7357 63.3806H43.8561Z" fill="#3164AF"/>
<path d="M139.775 74.6819H135.669C135.464 75.2104 135.26 75.7592 135.056 76.2876H140.49L139.775 74.6819Z" fill="#3164AF"/>
<path d="M138.876 63.3806H136.69L129.192 80.3527H131.072L132.87 76.2876H132.89L134.811 71.8972L137.773 65.2099L141.307 73.1777C141.307 73.1777 141.389 73.381 141.512 73.6452L141.961 74.6818C142.186 75.19 142.431 75.7591 142.676 76.2876H142.697L144.494 80.3527H146.374L138.876 63.3806Z" fill="#3164AF"/>
<path d="M80.3653 2.28091C107.619 2.28091 129.785 24.3345 129.785 51.4492C129.785 55.1689 129.336 58.7869 128.539 62.2829H130.153C130.93 58.7869 131.359 55.1689 131.359 51.4492C131.359 23.4808 108.477 0.71582 80.3653 0.71582C52.2536 0.71582 29.3721 23.4808 29.3721 51.4492C29.3721 54.2745 29.6581 57.0185 30.1076 59.7219H31.7011C31.2312 57.0389 30.9452 54.2745 30.9452 51.4492C30.9452 24.3345 53.1117 2.28091 80.3653 2.28091Z" fill="#3164AF"/>
<path d="M109.028 91.3489C100.938 97.1418 91.0705 100.618 80.3652 100.618C69.5782 100.618 59.6084 97.1215 51.4568 91.2473L51.3955 93.1579C59.6288 98.8289 69.5986 102.183 80.3652 102.183C91.0092 102.183 100.856 98.8695 109.028 93.2799V91.3489Z" fill="#3164AF"/>
</svg>
