<svg width="142" height="142" viewBox="0 0 142 142" fill="none" xmlns="http://www.w3.org/2000/svg">
<path d="M0 15C0 6.71573 6.71573 0 15 0H142V127C142 135.284 135.284 142 127 142H0V15Z" fill="#DCC9A9"/>
<g clip-path="url(#clip0_199_16)">
<path d="M87.213 91.9081C92.3385 86.7821 88.1835 74.3171 77.9325 64.0656C67.681 53.8143 55.2156 49.6592 50.09 54.7848C44.9644 59.9104 49.1195 72.3761 59.3708 82.6271C69.622 92.8786 82.0875 97.0336 87.213 91.9081Z" stroke="#4E6851" stroke-width="7.5" stroke-linecap="round" stroke-linejoin="round"/>
<path d="M47.9975 59.5L15.4375 116.605C14.7933 117.998 14.5922 119.555 14.8612 121.067C15.1302 122.578 15.8564 123.97 16.9418 125.055C18.0272 126.141 19.4195 126.867 20.9307 127.136C22.4419 127.405 23.9992 127.204 25.3925 126.56L82.4976 94.0249" stroke="#4E6851" stroke-width="7.5" stroke-linecap="round" stroke-linejoin="round"/>
<path d="M75.2859 14.75C76.3414 24.1996 75.4379 33.7653 72.6309 42.85" stroke="#4E6851" stroke-width="7.5" stroke-linecap="round" stroke-linejoin="round"/>
<path d="M93.8453 21.6399L91.1953 34.8949" stroke="#4E6851" stroke-width="7.5" stroke-linecap="round" stroke-linejoin="round"/>
<path d="M127.249 66.7151C117.8 65.6596 108.234 66.5636 99.1494 69.3701" stroke="#4E6851" stroke-width="7.5" stroke-linecap="round" stroke-linejoin="round"/>
<path d="M120.359 48.1553L107.104 50.8053" stroke="#4E6851" stroke-width="7.5" stroke-linecap="round" stroke-linejoin="round"/>
<path d="M51.415 36.77C50.3795 36.77 49.54 35.9306 49.54 34.895C49.54 33.8595 50.3795 33.02 51.415 33.02" stroke="#4E6851" stroke-width="7.5"/>
<path d="M51.415 36.77C52.4506 36.77 53.29 35.9306 53.29 34.895C53.29 33.8595 52.4506 33.02 51.415 33.02" stroke="#4E6851" stroke-width="7.5"/>
<path d="M88.5391 52.6833C87.5031 52.6833 86.6641 51.8439 86.6641 50.8083C86.6641 49.7728 87.5031 48.9333 88.5391 48.9333" stroke="#4E6851" stroke-width="7.5"/>
<path d="M88.5391 52.6833C89.5746 52.6833 90.4141 51.8439 90.4141 50.8083C90.4141 49.7728 89.5746 48.9333 88.5391 48.9333" stroke="#4E6851" stroke-width="7.5"/>
<path d="M109.755 31.47C108.719 31.47 107.88 30.6305 107.88 29.595C107.88 28.5595 108.719 27.72 109.755 27.72" stroke="#4E6851" stroke-width="7.5"/>
<path d="M109.755 31.47C110.79 31.47 111.63 30.6305 111.63 29.595C111.63 28.5595 110.79 27.72 109.755 27.72" stroke="#4E6851" stroke-width="7.5"/>
<path d="M109.755 84.5015C108.719 84.5015 107.88 83.662 107.88 82.6265C107.88 81.591 108.719 80.7515 109.755 80.7515" stroke="#4E6851" stroke-width="7.5"/>
<path d="M109.755 84.5015C110.79 84.5015 111.63 83.662 111.63 82.6265C111.63 81.591 110.79 80.7515 109.755 80.7515" stroke="#4E6851" stroke-width="7.5"/>
</g>
<defs>
<clipPath id="clip0_199_16">
<rect width="120" height="120" fill="white" transform="translate(11 11)"/>
</clipPath>
</defs>
</svg>
