<svg width="142" height="142" viewBox="0 0 142 142" fill="none" xmlns="http://www.w3.org/2000/svg">
<path d="M0 15C0 6.71573 6.71573 0 15 0H142V127C142 135.284 135.284 142 127 142H0V15Z" fill="#DCC9A9"/>
<path d="M107.626 54.1749L125.431 31.1599" stroke="#4E6851" stroke-width="7.5" stroke-linecap="round" stroke-linejoin="round"/>
<path d="M14.75 110.84L43.875 73.77L53.595 80.375" stroke="#4E6851" stroke-width="7.5" stroke-linecap="round" stroke-linejoin="round"/>
<path d="M100.126 32.9799L125.431 31.1599L127.251 56.4599" stroke="#4E6851" stroke-width="7.5" stroke-linecap="round" stroke-linejoin="round"/>
<path d="M65.1553 54.175C68.9431 58.0985 73.8367 60.7744 79.1838 61.8464C84.531 62.9183 90.0778 62.3353 95.0853 60.175" stroke="#4E6851" stroke-width="7.5" stroke-linecap="round" stroke-linejoin="round"/>
<path d="M62.9189 62.3799C62.9189 66.6644 64.621 70.7735 67.6506 73.8032C70.6803 76.8328 74.7894 78.5348 79.0739 78.5348C83.3585 78.5348 87.4676 76.8328 90.4973 73.8032C93.5269 70.7735 95.2289 66.6644 95.2289 62.3799C95.2289 58.0953 93.5269 53.9862 90.4973 50.9565C87.4676 47.9269 83.3585 46.2249 79.0739 46.2249C74.7894 46.2249 70.6803 47.9269 67.6506 50.9565C64.621 53.9862 62.9189 58.0953 62.9189 62.3799Z" stroke="#4E6851" stroke-width="7.5" stroke-linecap="round" stroke-linejoin="round"/>
<path d="M54.8428 110.84C54.9342 104.473 57.5275 98.3986 62.0621 93.9288C66.5966 89.4589 72.708 86.9531 79.0753 86.9531C85.4425 86.9531 91.554 89.4589 96.0885 93.9288C100.623 98.3986 103.216 104.473 103.308 110.84H54.8428Z" stroke="#4E6851" stroke-width="7.5" stroke-linecap="round" stroke-linejoin="round"/>
<path d="M79.0762 86.6101V100.495" stroke="#4E6851" stroke-width="7.5" stroke-linecap="round" stroke-linejoin="round"/>
</svg>
