<svg width="60" height="60" viewBox="0 0 60 60" fill="none" xmlns="http://www.w3.org/2000/svg">
<circle cx="30" cy="30" r="30" fill="#19A7E7"/>
<path fill-rule="evenodd" clip-rule="evenodd" d="M22.522 44.7246C21.3281 44.7246 21.5424 44.2692 21.1138 43.1457L17.624 31.7286L39.2974 18.3074L41.8382 18.9755L39.726 24.684L22.522 44.7246Z" fill="#D1E4F5"/>
<path fill-rule="evenodd" clip-rule="evenodd" d="M22.5225 44.7247C23.4408 44.7247 23.8388 44.2996 24.3592 43.8138C25.1551 43.0546 35.3796 33.1861 35.3796 33.1861L29.1041 31.6679L23.2878 35.3117L22.5225 44.421V44.7247Z" fill="#BAD4E4"/>
<path fill-rule="evenodd" clip-rule="evenodd" d="M23.1347 35.4331L37.951 46.2733C39.6347 47.1842 40.8592 46.7287 41.2877 44.7247L47.3183 16.5463C47.9306 14.0868 46.3693 12.9937 44.7469 13.7224L9.35926 27.265C6.9409 28.2367 6.97151 29.5727 8.93069 30.1497L18.0225 32.9736L39.053 19.8257C40.0326 19.2184 40.951 19.5524 40.2163 20.2204L23.1347 35.4331Z" fill="white"/>
</svg>
