<svg width="162" height="168" viewBox="0 0 162 168" fill="none" xmlns="http://www.w3.org/2000/svg">
<path d="M31.2695 155L19.1732 139.096C15.2837 134.074 13.1504 127.819 13.125 121.362V88.7334C13.125 86.2227 14.0808 83.8148 15.7822 82.0394C17.4836 80.2641 19.7911 79.2667 22.1972 79.2667C24.6033 79.2667 26.9109 80.2641 28.6123 82.0394C30.3136 83.8148 31.2695 86.2227 31.2695 88.7334V113.157" stroke="#4E6851" stroke-width="9.46668" stroke-linecap="round" stroke-linejoin="round"/>
<path d="M58.485 155.001V135.184C58.4957 129.583 56.8944 124.109 53.8884 119.469L46.9935 108.614C46.3961 107.577 45.6024 106.679 44.6609 105.973C43.7195 105.267 42.65 104.769 41.518 104.51C40.3859 104.25 39.2149 104.233 38.0765 104.462C36.9382 104.69 35.8564 105.158 34.8972 105.837C33.1873 107.037 31.9552 108.846 31.4319 110.925C30.9086 113.005 31.13 115.212 32.0546 117.134L40.3405 131.334" stroke="#4E6851" stroke-width="9.46668" stroke-linecap="round" stroke-linejoin="round"/>
<path d="M131.064 155L143.16 139.096C147.05 134.074 149.183 127.819 149.208 121.362V88.7334C149.208 86.2227 148.253 83.8148 146.551 82.0394C144.85 80.2641 142.542 79.2667 140.136 79.2667C137.73 79.2667 135.423 80.2641 133.721 82.0394C132.02 83.8148 131.064 86.2227 131.064 88.7334V113.157" stroke="#4E6851" stroke-width="9.46668" stroke-linecap="round" stroke-linejoin="round"/>
<path d="M103.847 155.001V135.184C103.836 129.583 105.438 124.109 108.444 119.469L115.339 108.614C115.936 107.577 116.73 106.679 117.671 105.973C118.613 105.267 119.682 104.769 120.814 104.51C121.946 104.25 123.117 104.233 124.256 104.462C125.394 104.69 126.476 105.158 127.435 105.837C129.145 107.037 130.377 108.846 130.9 110.925C131.424 113.005 131.202 115.212 130.278 117.134L121.992 131.334" stroke="#4E6851" stroke-width="9.46668" stroke-linecap="round" stroke-linejoin="round"/>
<path d="M112.92 60.3334H49.4141V17.7333C49.4297 16.4831 49.9127 15.2886 50.76 14.4044C51.6073 13.5203 52.752 13.0163 53.9502 13H108.384C109.582 13.0163 110.726 13.5203 111.574 14.4044C112.421 15.2886 112.904 16.4831 112.92 17.7333V60.3334Z" stroke="#4E6851" stroke-width="9.46668" stroke-linecap="round" stroke-linejoin="round"/>
<path d="M112.918 60.3334H49.4122L43.3641 72.3876C43.0293 73.1118 42.8745 73.9122 42.9137 74.7151C42.9529 75.5181 43.1849 76.2979 43.5884 76.9829C43.9918 77.6678 44.5539 78.236 45.2228 78.635C45.8916 79.0341 46.6459 79.2513 47.4163 79.2667H114.672C115.442 79.2513 116.196 79.0341 116.865 78.635C117.534 78.236 118.096 77.6678 118.5 76.9829C118.903 76.2979 119.135 75.5181 119.174 74.7151C119.214 73.9122 119.059 73.1118 118.724 72.3876L112.918 60.3334Z" stroke="#4E6851" stroke-width="9.46668" stroke-linecap="round" stroke-linejoin="round"/>
<g filter="url(#filter0_f_125_661)">
<path d="M31.2695 155L19.1732 139.096C15.2837 134.074 13.1504 127.819 13.125 121.362V88.7334C13.125 86.2227 14.0808 83.8148 15.7822 82.0394C17.4836 80.2641 19.7911 79.2667 22.1972 79.2667C24.6033 79.2667 26.9109 80.2641 28.6123 82.0394C30.3136 83.8148 31.2695 86.2227 31.2695 88.7334V113.157" stroke="#4E6851" stroke-width="9.46668" stroke-linecap="round" stroke-linejoin="round"/>
<path d="M58.485 155.001V135.184C58.4957 129.583 56.8944 124.109 53.8884 119.469L46.9935 108.614C46.3961 107.577 45.6024 106.679 44.6609 105.973C43.7195 105.267 42.65 104.769 41.518 104.51C40.3859 104.25 39.2149 104.233 38.0765 104.462C36.9382 104.69 35.8564 105.158 34.8972 105.837C33.1873 107.037 31.9552 108.846 31.4319 110.925C30.9086 113.005 31.13 115.212 32.0546 117.134L40.3405 131.334" stroke="#4E6851" stroke-width="9.46668" stroke-linecap="round" stroke-linejoin="round"/>
<path d="M131.064 155L143.16 139.096C147.05 134.074 149.183 127.819 149.208 121.362V88.7334C149.208 86.2227 148.253 83.8148 146.551 82.0394C144.85 80.2641 142.542 79.2667 140.136 79.2667C137.73 79.2667 135.423 80.2641 133.721 82.0394C132.02 83.8148 131.064 86.2227 131.064 88.7334V113.157" stroke="#4E6851" stroke-width="9.46668" stroke-linecap="round" stroke-linejoin="round"/>
<path d="M103.847 155.001V135.184C103.836 129.583 105.438 124.109 108.444 119.469L115.339 108.614C115.936 107.577 116.73 106.679 117.671 105.973C118.613 105.267 119.682 104.769 120.814 104.51C121.946 104.25 123.117 104.233 124.256 104.462C125.394 104.69 126.476 105.158 127.435 105.837C129.145 107.037 130.377 108.846 130.9 110.925C131.424 113.005 131.202 115.212 130.278 117.134L121.992 131.334" stroke="#4E6851" stroke-width="9.46668" stroke-linecap="round" stroke-linejoin="round"/>
<path d="M112.92 60.3334H49.4141V17.7333C49.4297 16.4831 49.9127 15.2886 50.76 14.4044C51.6073 13.5203 52.752 13.0163 53.9502 13H108.384C109.582 13.0163 110.726 13.5203 111.574 14.4044C112.421 15.2886 112.904 16.4831 112.92 17.7333V60.3334Z" stroke="#4E6851" stroke-width="9.46668" stroke-linecap="round" stroke-linejoin="round"/>
<path d="M112.918 60.3334H49.4122L43.3641 72.3876C43.0293 73.1118 42.8745 73.9122 42.9137 74.7151C42.9529 75.5181 43.1849 76.2979 43.5884 76.9829C43.9918 77.6678 44.5539 78.236 45.2228 78.635C45.8916 79.0341 46.6459 79.2513 47.4163 79.2667H114.672C115.442 79.2513 116.196 79.0341 116.865 78.635C117.534 78.236 118.096 77.6678 118.5 76.9829C118.903 76.2979 119.135 75.5181 119.174 74.7151C119.214 73.9122 119.059 73.1118 118.724 72.3876L112.918 60.3334Z" stroke="#4E6851" stroke-width="9.46668" stroke-linecap="round" stroke-linejoin="round"/>
</g>
<defs>
<filter id="filter0_f_125_661" x="0.391602" y="0.266602" width="161.55" height="167.467" filterUnits="userSpaceOnUse" color-interpolation-filters="sRGB">
<feFlood flood-opacity="0" result="BackgroundImageFix"/>
<feBlend mode="normal" in="SourceGraphic" in2="BackgroundImageFix" result="shape"/>
<feGaussianBlur stdDeviation="4" result="effect1_foregroundBlur_125_661"/>
</filter>
</defs>
</svg>
