<svg width="251" height="146" viewBox="0 0 251 146" fill="none" xmlns="http://www.w3.org/2000/svg">
<path d="M25.8891 135.139C27.0668 136.287 28.9663 136.287 30.182 135.139L82.7227 84.1529L131.198 131.73C132.376 132.878 134.314 132.878 135.491 131.73L240.117 29.7214C241.294 28.5727 241.294 26.683 240.117 25.5343L225.073 10.8611C224.501 10.3095 223.73 10 222.926 10C222.122 10 221.351 10.3095 220.78 10.8611L133.402 96.0471L85.0021 48.5445C84.4309 47.9929 83.6595 47.6834 82.8556 47.6834C82.0518 47.6834 81.2804 47.9929 80.7092 48.5445L10.8829 116.241C10.3173 116.798 10 117.551 10 118.335C10 119.119 10.3173 119.871 10.8829 120.428L25.8891 135.139Z" fill="#4E6851"/>
<g filter="url(#filter0_f_125_614)">
<path d="M25.8891 135.139C27.0668 136.287 28.9663 136.287 30.182 135.139L82.7227 84.1529L131.198 131.73C132.376 132.878 134.314 132.878 135.491 131.73L240.117 29.7214C241.294 28.5727 241.294 26.683 240.117 25.5343L225.073 10.8611C224.501 10.3095 223.73 10 222.926 10C222.122 10 221.351 10.3095 220.78 10.8611L133.402 96.0471L85.0021 48.5445C84.4309 47.9929 83.6595 47.6834 82.8556 47.6834C82.0518 47.6834 81.2804 47.9929 80.7092 48.5445L10.8829 116.241C10.3173 116.798 10 117.551 10 118.335C10 119.119 10.3173 119.871 10.8829 120.428L25.8891 135.139Z" fill="#4E6851"/>
</g>
<defs>
<filter id="filter0_f_125_614" x="0" y="0" width="251" height="146" filterUnits="userSpaceOnUse" color-interpolation-filters="sRGB">
<feFlood flood-opacity="0" result="BackgroundImageFix"/>
<feBlend mode="normal" in="SourceGraphic" in2="BackgroundImageFix" result="shape"/>
<feGaussianBlur stdDeviation="5" result="effect1_foregroundBlur_125_614"/>
</filter>
</defs>
</svg>
